<?xml version="1.0" ?><svg id="Слой_1" style="enable-background:new 0 0 512 512;" version="1.1" viewBox="0 0 512 512" xml:space="preserve" xmlns="http://www.w3.org/2000/svg" xmlns:xlink="http://www.w3.org/1999/xlink"><style type="text/css">
	.st0{fill:#FFF7C3;}
	.st1{fill:#EDF1AD;}
	.st2{fill:#EBF2FF;}
	.st3{fill:#FFD6C6;}
	.st4{fill:none;stroke:#000000;stroke-width:12;stroke-miterlimit:10;}
	.st5{fill:#FFD6C6;stroke:#000000;stroke-width:12;stroke-miterlimit:10;}
</style><g><g><path class="st0" d="M302.8,463.2h-31.2c-31.4,0-56.8-25.5-56.8-56.8v-88.1h144.9v88.1C359.6,437.8,334.2,463.2,302.8,463.2z"/><path class="st1" d="M275.1,200.3c0,0-89.7-42.2,0-151.5C364.8,158,275.1,200.3,275.1,200.3z"/><path class="st2" d="M269.1,260.6c0,0-64,32.9-87.2-67C284.5,190.3,269.1,260.6,269.1,260.6z"/><path class="st3" d="M270.9,298.6c0,0,51.3,23.8,66.3-55.4C256.6,243.9,270.9,298.6,270.9,298.6z"/><path class="st4" d="M258.6,200.3c0,0-89.7-42.2,0-151.5C348.3,158,258.6,200.3,258.6,200.3z"/><path class="st4" d="M257.8,267.4c0,0-64,32.9-87.2-67C273.2,197.1,257.8,267.4,257.8,267.4z"/><path class="st4" d="M259.6,291.9c0,0,51.3,23.8,66.3-55.4C245.3,237.1,259.6,291.9,259.6,291.9z"/><path class="st4" d="M274.2,463.2H243c-31.4,0-56.8-25.5-56.8-56.8v-88.1h144.9v88.1C331.1,437.8,305.6,463.2,274.2,463.2z"/><line class="st4" x1="258.6" x2="258.6" y1="318.3" y2="172.7"/><line class="st4" x1="181.9" x2="336.5" y1="463.2" y2="463.2"/><line class="st4" x1="151.2" x2="163.5" y1="463.2" y2="463.2"/><line class="st4" x1="257.8" x2="237.2" y1="267.4" y2="253.6"/><line class="st4" x1="259.6" x2="275.1" y1="291.9" y2="278.2"/><line class="st4" x1="170.6" x2="247.5" y1="350.5" y2="350.5"/></g><line class="st5" x1="298.5" x2="314.9" y1="350.5" y2="350.5"/></g></svg>